<svg xmlns="http://www.w3.org/2000/svg" xmlns:xlink="http://www.w3.org/1999/xlink" width="1920" zoomAndPan="magnify" viewBox="0 0 1440 809.999993" height="1080" preserveAspectRatio="xMidYMid meet" version="1.0"><defs><g/><clipPath id="52143bfa9b"><path d="M 278.933594 551.660156 L 380.332031 551.660156 L 380.332031 653.058594 L 278.933594 653.058594 Z M 278.933594 551.660156 " clip-rule="nonzero"/></clipPath><clipPath id="e05959f081"><path d="M 250.128906 601.890625 L 409.503906 601.890625 L 409.503906 681.695312 L 250.128906 681.695312 Z M 250.128906 601.890625 " clip-rule="nonzero"/></clipPath><clipPath id="4f3af14de2"><path d="M 271.175781 440.875 L 388.066406 440.875 L 388.066406 557.765625 L 271.175781 557.765625 Z M 271.175781 440.875 " clip-rule="nonzero"/></clipPath></defs><g fill="#5a189a" fill-opacity="1"><g transform="translate(218.003905, 323.250004)"><g><path d="M 38.25 -53.25 C 46.25 -43.25 54.664062 -35.5 63.5 -30 C 72.332031 -24.5 83.414062 -21.75 96.75 -21.75 C 103.582031 -21.75 110.164062 -22.707031 116.5 -24.625 C 122.832031 -26.539062 128 -29.375 132 -33.125 C 136 -36.875 138 -41.582031 138 -47.25 C 138 -55.582031 133.832031 -61.707031 125.5 -65.625 C 117.164062 -69.539062 105.5 -72.664062 90.5 -75 C 71.664062 -78.164062 56.707031 -83.789062 45.625 -91.875 C 34.539062 -99.957031 29 -111.832031 29 -127.5 C 29 -137.832031 32.082031 -146.75 38.25 -154.25 C 44.414062 -161.75 52.582031 -167.5 62.75 -171.5 C 72.914062 -175.5 84.082031 -177.5 96.25 -177.5 C 111.582031 -177.5 124.875 -174.832031 136.125 -169.5 C 147.375 -164.164062 156.164062 -156.582031 162.5 -146.75 L 144 -127.5 C 138.664062 -135.164062 131.957031 -141.375 123.875 -146.125 C 115.789062 -150.875 106.332031 -153.25 95.5 -153.25 C 84.664062 -153.25 75.539062 -151.125 68.125 -146.875 C 60.707031 -142.625 57 -136.664062 57 -129 C 57 -120.164062 60.914062 -113.832031 68.75 -110 C 76.582031 -106.164062 87 -103.164062 100 -101 C 108.5 -99.664062 116.664062 -97.832031 124.5 -95.5 C 132.332031 -93.164062 139.375 -90.125 145.625 -86.375 C 151.875 -82.625 156.832031 -78.039062 160.5 -72.625 C 164.164062 -67.207031 166 -60.582031 166 -52.75 C 166 -41.582031 163.125 -31.875 157.375 -23.625 C 151.625 -15.375 143.414062 -8.957031 132.75 -4.375 C 122.082031 0.207031 109.5 2.5 95 2.5 C 79.664062 2.5 65.75 -0.164062 53.25 -5.5 C 40.75 -10.832031 29.75 -19.5 20.25 -31.5 Z M 38.25 -53.25 "/></g></g></g><g fill="#5a189a" fill-opacity="1"><g transform="translate(405.001696, 323.250004)"><g><path d="M 116.5 -175 C 126.164062 -175 135.082031 -172.625 143.25 -167.875 C 151.414062 -163.125 157.957031 -156.707031 162.875 -148.625 C 167.789062 -140.539062 170.25 -131.414062 170.25 -121.25 C 170.25 -110.914062 167.707031 -101.582031 162.625 -93.25 C 157.539062 -84.914062 150.789062 -78.289062 142.375 -73.375 C 133.957031 -68.457031 124.664062 -66 114.5 -66 L 60 -66 L 60 0 L 33 0 L 33 -175 Z M 113.25 -92 C 118.414062 -92 123.207031 -93.332031 127.625 -96 C 132.039062 -98.664062 135.582031 -102.207031 138.25 -106.625 C 140.914062 -111.039062 142.25 -115.914062 142.25 -121.25 C 142.25 -126.414062 140.914062 -131.082031 138.25 -135.25 C 135.582031 -139.414062 132.039062 -142.75 127.625 -145.25 C 123.207031 -147.75 118.414062 -149 113.25 -149 L 60 -149 L 60 -92 Z M 113.25 -92 "/></g></g></g><g fill="#5a189a" fill-opacity="1"><g transform="translate(595.499429, 323.250004)"><g><path d="M 162 0 L 144 -42.5 L 59 -42.5 L 40.75 0 L 13 0 L 87.75 -175 L 117 -175 L 191.25 0 Z M 88 -110.5 L 70 -68.5 L 133 -68.5 L 114.5 -111.5 C 112.332031 -117 110.164062 -122.625 108 -128.375 C 105.832031 -134.125 103.664062 -140.082031 101.5 -146.25 C 99.164062 -139.914062 96.914062 -133.75 94.75 -127.75 C 92.582031 -121.75 90.332031 -116 88 -110.5 Z M 88 -110.5 "/></g></g></g><g fill="#5a189a" fill-opacity="1"><g transform="translate(799.747068, 323.250004)"><g><path d="M 174.25 -120 C 174.25 -108.664062 170.832031 -98.375 164 -89.125 C 157.164062 -79.875 148.414062 -73.164062 137.75 -69 L 182.75 0.25 L 149.5 0 L 107.75 -65.25 L 60 -65.25 L 60 0 L 33 0 L 33 -175 L 118.5 -175 C 128 -175 137 -172.707031 145.5 -168.125 C 154 -163.539062 160.914062 -157.082031 166.25 -148.75 C 171.582031 -140.414062 174.25 -130.832031 174.25 -120 Z M 112.75 -149 L 60 -149 L 60 -91.25 L 117 -91.25 C 122.832031 -91.25 127.957031 -92.582031 132.375 -95.25 C 136.789062 -97.914062 140.207031 -101.457031 142.625 -105.875 C 145.039062 -110.289062 146.25 -115.082031 146.25 -120.25 C 146.25 -125.914062 144.75 -130.914062 141.75 -135.25 C 138.75 -139.582031 134.707031 -142.957031 129.625 -145.375 C 124.539062 -147.789062 118.914062 -149 112.75 -149 Z M 112.75 -149 "/></g></g></g><g fill="#5a189a" fill-opacity="1"><g transform="translate(1004.994646, 323.250004)"><g><path d="M 60 0 L 33 0 L 33 -175 L 60 -175 L 60 -85.5 L 95.5 -117 L 159.75 -175 L 197.25 -175 L 115.5 -103.25 L 196.75 0 L 162 0 L 95.75 -85.5 L 60 -54 Z M 60 0 "/></g></g></g><g fill="#5a189a" fill-opacity="1"><g transform="translate(15.011724, 672.749986)"><g><path d="M 60 -175 L 60 -99.75 L 161.25 -99.75 L 161.25 -175 L 188.25 -175 L 188.25 0 L 161.25 0 L 161.25 -73.75 L 60 -73.75 L 60 0 L 33 0 L 33 -175 Z M 60 -175 "/></g></g></g><g fill="#5a189a" fill-opacity="1"><g transform="translate(236.003904, 672.749986)"><g/></g></g><g fill="#5a189a" fill-opacity="1"><g transform="translate(326.502805, 672.749986)"><g/></g></g><g fill="#5a189a" fill-opacity="1"><g transform="translate(416.999985, 672.749986)"><g><path d="M 174.25 -120 C 174.25 -108.664062 170.832031 -98.375 164 -89.125 C 157.164062 -79.875 148.414062 -73.164062 137.75 -69 L 182.75 0.25 L 149.5 0 L 107.75 -65.25 L 60 -65.25 L 60 0 L 33 0 L 33 -175 L 118.5 -175 C 128 -175 137 -172.707031 145.5 -168.125 C 154 -163.539062 160.914062 -157.082031 166.25 -148.75 C 171.582031 -140.414062 174.25 -130.832031 174.25 -120 Z M 112.75 -149 L 60 -149 L 60 -91.25 L 117 -91.25 C 122.832031 -91.25 127.957031 -92.582031 132.375 -95.25 C 136.789062 -97.914062 140.207031 -101.457031 142.625 -105.875 C 145.039062 -110.289062 146.25 -115.082031 146.25 -120.25 C 146.25 -125.914062 144.75 -130.914062 141.75 -135.25 C 138.75 -139.582031 134.707031 -142.957031 129.625 -145.375 C 124.539062 -147.789062 118.914062 -149 112.75 -149 Z M 112.75 -149 "/></g></g></g><g fill="#5a189a" fill-opacity="1"><g transform="translate(622.247585, 672.749986)"><g><path d="M 127.25 0 L 29.75 0 L 29.75 -25.75 L 65 -25.75 L 65 -149.25 L 29.75 -149.25 L 29.75 -175 L 127.25 -175 L 127.25 -149.25 L 92 -149.25 L 92 -25.75 L 127.25 -25.75 Z M 127.25 0 "/></g></g></g><g fill="#5a189a" fill-opacity="1"><g transform="translate(779.245707, 672.749986)"><g><path d="M 166.25 -175 L 166.25 -155.5 L 59 -26.25 L 169 -26.25 L 169 0 L 19 0 L 19 -19.75 L 126.75 -148.75 L 25.5 -148.75 L 25.5 -175 Z M 166.25 -175 "/></g></g></g><g fill="#5a189a" fill-opacity="1"><g transform="translate(966.493473, 672.749986)"><g><path d="M 207.5 -87.5 C 207.5 -74.832031 205.207031 -63.039062 200.625 -52.125 C 196.039062 -41.207031 189.539062 -31.664062 181.125 -23.5 C 172.707031 -15.332031 162.789062 -8.957031 151.375 -4.375 C 139.957031 0.207031 127.414062 2.5 113.75 2.5 C 100.082031 2.5 87.5 0.207031 76 -4.375 C 64.5 -8.957031 54.582031 -15.332031 46.25 -23.5 C 37.914062 -31.664062 31.457031 -41.207031 26.875 -52.125 C 22.289062 -63.039062 20 -74.832031 20 -87.5 C 20 -100.164062 22.289062 -111.957031 26.875 -122.875 C 31.457031 -133.789062 37.914062 -143.332031 46.25 -151.5 C 54.582031 -159.664062 64.5 -166.039062 76 -170.625 C 87.5 -175.207031 100.082031 -177.5 113.75 -177.5 C 127.414062 -177.5 139.957031 -175.207031 151.375 -170.625 C 162.789062 -166.039062 172.707031 -159.664062 181.125 -151.5 C 189.539062 -143.332031 196.039062 -133.789062 200.625 -122.875 C 205.207031 -111.957031 207.5 -100.164062 207.5 -87.5 Z M 180 -87.5 C 180 -99.664062 177.164062 -110.539062 171.5 -120.125 C 165.832031 -129.707031 158 -137.289062 148 -142.875 C 138 -148.457031 126.582031 -151.25 113.75 -151.25 C 100.582031 -151.25 89.039062 -148.457031 79.125 -142.875 C 69.207031 -137.289062 61.457031 -129.707031 55.875 -120.125 C 50.289062 -110.539062 47.5 -99.664062 47.5 -87.5 C 47.5 -75.332031 50.289062 -64.457031 55.875 -54.875 C 61.457031 -45.289062 69.207031 -37.707031 79.125 -32.125 C 89.039062 -26.539062 100.582031 -23.75 113.75 -23.75 C 126.582031 -23.75 138 -26.539062 148 -32.125 C 158 -37.707031 165.832031 -45.332031 171.5 -55 C 177.164062 -64.664062 180 -75.5 180 -87.5 Z M 180 -87.5 "/></g></g></g><g fill="#5a189a" fill-opacity="1"><g transform="translate(1193.990789, 672.749986)"><g><path d="M 171.25 -175 L 198.25 -175 L 198.25 0 L 172.5 0 L 55.5 -135.25 C 56.5 -124.914062 57.5 -114.539062 58.5 -104.125 C 59.5 -93.707031 60 -83.25 60 -72.75 L 60 0 L 33 0 L 33 -175 L 58.25 -175 L 175.25 -36.5 C 174.082031 -44.664062 173.207031 -53.414062 172.625 -62.75 C 172.039062 -72.082031 171.664062 -81.457031 171.5 -90.875 C 171.332031 -100.289062 171.25 -109.164062 171.25 -117.5 Z M 171.25 -175 "/></g></g></g><g clip-path="url(#52143bfa9b)"><path fill="#5a189a" d="M 380.324219 602.355469 C 342.304688 609.355469 336.628906 615.027344 329.628906 653.050781 C 322.628906 615.027344 316.957031 609.355469 278.933594 602.355469 C 316.957031 595.355469 322.628906 589.679688 329.628906 551.660156 C 336.628906 589.679688 342.304688 595.355469 380.324219 602.355469 Z M 380.324219 602.355469 " fill-opacity="1" fill-rule="nonzero"/></g><g clip-path="url(#e05959f081)"><path fill="#5a189a" d="M 409.4375 601.890625 C 409.4375 645.972656 373.765625 681.695312 329.75 681.695312 C 285.734375 681.695312 250.199219 645.972656 250.199219 601.890625 Z M 409.4375 601.890625 " fill-opacity="1" fill-rule="nonzero"/></g><g clip-path="url(#4f3af14de2)"><path fill="#26f7b2" d="M 388.058594 499.316406 C 344.226562 507.382812 337.6875 513.925781 329.617188 557.753906 C 321.546875 513.925781 315.007812 507.382812 271.175781 499.316406 C 315.007812 491.246094 321.546875 484.703125 329.617188 440.875 C 337.6875 484.703125 344.226562 491.246094 388.058594 499.316406 Z M 388.058594 499.316406 " fill-opacity="1" fill-rule="nonzero"/></g></svg>