<svg xmlns="http://www.w3.org/2000/svg" xmlns:xlink="http://www.w3.org/1999/xlink" width="1080" zoomAndPan="magnify" viewBox="0 0 810 809.999993" height="1080" preserveAspectRatio="xMidYMid meet" version="1.0"><defs><clipPath id="548f8e2bd1"><path d="M 242.25 371.726562 L 566.25 371.726562 L 566.25 695.726562 L 242.25 695.726562 Z M 242.25 371.726562 " clip-rule="nonzero"/></clipPath><clipPath id="bc7c68df03"><path d="M 150.214844 532.226562 L 659.464844 532.226562 L 659.464844 787.226562 L 150.214844 787.226562 Z M 150.214844 532.226562 " clip-rule="nonzero"/></clipPath><clipPath id="d7ba98d967"><path d="M 217.464844 17.738281 L 590.964844 17.738281 L 590.964844 391.238281 L 217.464844 391.238281 Z M 217.464844 17.738281 " clip-rule="nonzero"/></clipPath></defs><g clip-path="url(#548f8e2bd1)"><path fill="#222222" d="M 566.226562 533.714844 C 444.734375 556.078125 426.605469 574.210938 404.238281 695.699219 C 381.875 574.210938 363.742188 556.078125 242.25 533.714844 C 363.742188 511.347656 381.875 493.21875 404.238281 371.726562 C 426.605469 493.21875 444.734375 511.347656 566.226562 533.714844 Z M 566.226562 533.714844 " fill-opacity="1" fill-rule="nonzero"/></g><g clip-path="url(#bc7c68df03)"><path fill="#222222" d="M 659.242188 532.226562 C 659.242188 673.078125 545.265625 787.226562 404.625 787.226562 C 263.980469 787.226562 150.4375 673.078125 150.4375 532.226562 Z M 659.242188 532.226562 " fill-opacity="1" fill-rule="nonzero"/></g><g clip-path="url(#d7ba98d967)"><path fill="#222222" d="M 590.9375 204.472656 C 450.882812 230.257812 429.984375 251.15625 404.199219 391.207031 C 378.417969 251.15625 357.515625 230.257812 217.464844 204.472656 C 357.515625 178.691406 378.417969 157.789062 404.199219 17.738281 C 429.984375 157.789062 450.882812 178.691406 590.9375 204.472656 Z M 590.9375 204.472656 " fill-opacity="1" fill-rule="nonzero"/></g></svg>