<svg xmlns="http://www.w3.org/2000/svg" xmlns:xlink="http://www.w3.org/1999/xlink" width="1080" zoomAndPan="magnify" viewBox="0 0 810 809.999993" height="1080" preserveAspectRatio="xMidYMid meet" version="1.0"><defs><clipPath id="84a443d99d"><path d="M 79 33 L 730 33 L 730 777.933594 L 79 777.933594 Z M 79 33 " clip-rule="nonzero"/></clipPath></defs><g clip-path="url(#84a443d99d)"><path fill="#1cc6ec" d="M 722.386719 128.460938 C 717.550781 123.652344 711.855469 121.234375 705.277344 121.234375 C 702 121.234375 695.089844 123.921875 684.589844 129.230469 C 674.074219 134.554688 662.914062 140.480469 651.167969 147.089844 C 639.394531 153.65625 625.457031 159.609375 609.378906 164.933594 C 593.3125 170.242188 578.433594 172.933594 564.742188 172.933594 C 552.09375 172.933594 540.933594 170.527344 531.320312 165.707031 C 499.429688 150.765625 471.691406 139.621094 448.140625 132.265625 C 424.59375 124.925781 399.269531 121.234375 372.160156 121.234375 C 325.347656 121.234375 272.027344 136.457031 212.253906 166.851562 C 199.921875 173.003906 191.082031 177.769531 185.359375 181.261719 L 179.679688 139.605469 C 192.511719 128.460938 200.792969 112.21875 200.792969 93.890625 C 200.792969 60.304688 173.582031 33.089844 140.003906 33.089844 C 106.429688 33.089844 79.214844 60.304688 79.214844 93.890625 C 79.214844 115.796875 90.917969 134.839844 108.289062 145.542969 L 190.40625 747.8125 C 192.855469 765.742188 208.191406 778.746094 225.800781 778.746094 C 227.40625 778.746094 229.035156 778.648438 230.679688 778.433594 C 250.253906 775.742188 263.957031 757.726562 261.28125 738.152344 L 228.277344 496.085938 C 288.164062 466.367188 339.96875 451.386719 383.546875 451.386719 C 402.046875 451.386719 420.085938 454.148438 437.667969 459.726562 C 455.265625 465.324219 469.902344 471.390625 481.546875 477.957031 C 493.195312 484.539062 506.941406 490.636719 522.75 496.1875 C 538.589844 501.769531 554.226562 504.558594 569.664062 504.558594 C 608.664062 504.558594 655.375 489.863281 709.8125 460.484375 C 716.648438 456.9375 721.65625 453.445312 724.820312 450.027344 C 727.980469 446.605469 729.566406 441.742188 729.566406 435.417969 L 729.566406 145.558594 C 729.566406 138.992188 727.179688 133.28125 722.386719 128.460938 Z M 722.386719 128.460938 " fill-opacity="1" fill-rule="nonzero"/></g></svg>