<svg xmlns="http://www.w3.org/2000/svg" xmlns:xlink="http://www.w3.org/1999/xlink" width="1080" zoomAndPan="magnify" viewBox="0 0 810 809.999993" height="1080" preserveAspectRatio="xMidYMid meet" version="1.0"><path fill="#1cc6ec" d="M 582.835938 715.539062 L 426.246094 636.738281 C 425.03125 636.128906 423.789062 635.59375 422.511719 635.132812 C 421.234375 634.675781 419.933594 634.292969 418.613281 633.992188 C 417.289062 633.691406 415.953125 633.472656 414.605469 633.332031 C 413.253906 633.191406 411.902344 633.132812 410.546875 633.160156 C 409.1875 633.183594 407.839844 633.289062 406.496094 633.476562 C 405.152344 633.664062 403.824219 633.933594 402.511719 634.28125 C 401.203125 634.628906 399.917969 635.058594 398.65625 635.5625 C 397.398438 636.066406 396.171875 636.644531 394.984375 637.296875 L 241.300781 721.613281 C 239.933594 722.363281 238.519531 723.015625 237.0625 723.570312 C 235.601562 724.125 234.113281 724.574219 232.59375 724.917969 C 231.070312 725.265625 229.535156 725.503906 227.980469 725.636719 C 226.425781 725.769531 224.871094 725.792969 223.3125 725.707031 C 221.753906 725.625 220.210938 725.429688 218.679688 725.132812 C 217.148438 724.832031 215.648438 724.429688 214.171875 723.917969 C 212.699219 723.410156 211.265625 722.800781 209.878906 722.09375 C 208.488281 721.386719 207.152344 720.582031 205.875 719.691406 C 204.597656 718.796875 203.386719 717.816406 202.246094 716.753906 C 201.105469 715.691406 200.042969 714.554688 199.058594 713.34375 C 198.074219 712.132812 197.179688 710.863281 196.375 709.527344 C 195.566406 708.191406 194.859375 706.804688 194.246094 705.371094 C 193.632812 703.9375 193.121094 702.46875 192.710938 700.964844 C 192.300781 699.457031 192 697.933594 191.804688 696.386719 C 191.609375 694.835938 191.519531 693.285156 191.539062 691.722656 C 191.558594 690.164062 191.6875 688.613281 191.925781 687.074219 L 218.507812 513.769531 C 218.710938 512.429688 218.835938 511.078125 218.878906 509.722656 C 218.917969 508.367188 218.878906 507.015625 218.757812 505.664062 C 218.636719 504.3125 218.433594 502.972656 218.148438 501.644531 C 217.863281 500.320312 217.5 499.015625 217.058594 497.730469 C 216.617188 496.449219 216.097656 495.199219 215.503906 493.976562 C 214.910156 492.757812 214.246094 491.578125 213.507812 490.4375 C 212.773438 489.300781 211.96875 488.207031 211.101562 487.167969 C 210.230469 486.125 209.304688 485.136719 208.316406 484.207031 L 80.597656 364.132812 C 79.460938 363.0625 78.40625 361.921875 77.429688 360.703125 C 76.453125 359.488281 75.566406 358.210938 74.765625 356.871094 C 73.96875 355.53125 73.265625 354.144531 72.660156 352.707031 C 72.054688 351.269531 71.550781 349.796875 71.152344 348.289062 C 70.75 346.78125 70.457031 345.253906 70.269531 343.703125 C 70.082031 342.15625 70.003906 340.601562 70.03125 339.042969 C 70.058594 337.484375 70.195312 335.933594 70.441406 334.394531 C 70.683594 332.851562 71.035156 331.335938 71.488281 329.84375 C 71.945312 328.355469 72.503906 326.902344 73.160156 325.488281 C 73.816406 324.074219 74.570312 322.710938 75.417969 321.402344 C 76.265625 320.089844 77.199219 318.847656 78.21875 317.667969 C 79.242188 316.488281 80.335938 315.386719 81.511719 314.359375 C 82.6875 313.332031 83.925781 312.390625 85.230469 311.539062 C 86.535156 310.683594 87.894531 309.925781 89.304688 309.261719 C 90.714844 308.59375 92.164062 308.03125 93.65625 307.566406 C 95.144531 307.105469 96.660156 306.746094 98.199219 306.496094 L 271.199219 278.207031 C 272.535156 277.988281 273.855469 277.691406 275.160156 277.3125 C 276.460938 276.933594 277.734375 276.480469 278.980469 275.949219 C 280.226562 275.417969 281.4375 274.8125 282.613281 274.132812 C 283.785156 273.453125 284.914062 272.707031 285.996094 271.894531 C 287.082031 271.078125 288.109375 270.199219 289.085938 269.261719 C 290.0625 268.320312 290.980469 267.328125 291.835938 266.277344 C 292.695312 265.226562 293.484375 264.125 294.207031 262.980469 C 294.929688 261.832031 295.582031 260.648438 296.164062 259.421875 L 370.9375 100.828125 C 371.601562 99.417969 372.363281 98.0625 373.214844 96.753906 C 374.070312 95.449219 375.011719 94.210938 376.039062 93.035156 C 377.066406 91.863281 378.167969 90.765625 379.347656 89.746094 C 380.527344 88.722656 381.773438 87.789062 383.082031 86.941406 C 384.390625 86.097656 385.753906 85.34375 387.167969 84.6875 C 388.582031 84.027344 390.035156 83.472656 391.527344 83.019531 C 393.019531 82.5625 394.539062 82.214844 396.078125 81.96875 C 397.617188 81.726562 399.167969 81.589844 400.726562 81.5625 C 402.289062 81.535156 403.84375 81.613281 405.390625 81.804688 C 406.9375 81.992188 408.46875 82.289062 409.972656 82.6875 C 411.480469 83.089844 412.953125 83.59375 414.390625 84.199219 C 415.828125 84.808594 417.214844 85.511719 418.554688 86.308594 C 419.894531 87.109375 421.171875 88 422.386719 88.976562 C 423.601562 89.953125 424.746094 91.011719 425.8125 92.148438 C 426.882812 93.285156 427.867188 94.488281 428.765625 95.761719 C 429.667969 97.039062 430.472656 98.367188 431.1875 99.753906 L 511.546875 255.546875 C 512.171875 256.75 512.863281 257.914062 513.628906 259.035156 C 514.390625 260.160156 515.21875 261.230469 516.113281 262.253906 C 517.003906 263.273438 517.957031 264.238281 518.964844 265.144531 C 519.976562 266.050781 521.035156 266.894531 522.148438 267.671875 C 523.257812 268.449219 524.414062 269.15625 525.613281 269.792969 C 526.808594 270.433594 528.039062 270.996094 529.304688 271.484375 C 530.570312 271.972656 531.863281 272.386719 533.179688 272.71875 C 534.492188 273.050781 535.824219 273.300781 537.171875 273.472656 L 711.070312 295.582031 C 712.617188 295.78125 714.144531 296.082031 715.648438 296.492188 C 717.152344 296.902344 718.621094 297.414062 720.054688 298.027344 C 721.488281 298.640625 722.875 299.351562 724.210938 300.160156 C 725.542969 300.964844 726.816406 301.859375 728.027344 302.84375 C 729.238281 303.828125 730.375 304.890625 731.4375 306.035156 C 732.496094 307.175781 733.476562 308.386719 734.371094 309.664062 C 735.261719 310.945312 736.0625 312.277344 736.769531 313.667969 C 737.480469 315.058594 738.085938 316.488281 738.59375 317.964844 C 739.105469 319.4375 739.507812 320.941406 739.804688 322.472656 C 740.105469 324.003906 740.296875 325.546875 740.378906 327.105469 C 740.464844 328.664062 740.441406 330.21875 740.308594 331.773438 C 740.175781 333.328125 739.933594 334.863281 739.589844 336.386719 C 739.242188 337.90625 738.789062 339.394531 738.234375 340.851562 C 737.683594 342.3125 737.027344 343.722656 736.277344 345.089844 C 735.527344 346.457031 734.683594 347.765625 733.75 349.015625 C 732.820312 350.265625 731.804688 351.445312 730.707031 352.554688 L 607.382812 477.128906 C 606.429688 478.09375 605.535156 479.113281 604.703125 480.183594 C 603.871094 481.257812 603.109375 482.375 602.414062 483.539062 C 601.71875 484.707031 601.09375 485.910156 600.542969 487.148438 C 599.992188 488.390625 599.519531 489.660156 599.125 490.957031 C 598.726562 492.253906 598.410156 493.570312 598.175781 494.90625 C 597.9375 496.242188 597.78125 497.589844 597.707031 498.945312 C 597.636719 500.296875 597.644531 501.652344 597.734375 503.007812 C 597.824219 504.359375 597.996094 505.703125 598.25 507.039062 L 630.949219 679.253906 C 631.238281 680.789062 631.421875 682.332031 631.5 683.890625 C 631.574219 685.449219 631.539062 687.003906 631.398438 688.554688 C 631.257812 690.109375 631.007812 691.644531 630.65625 693.164062 C 630.300781 694.683594 629.839844 696.167969 629.277344 697.625 C 628.71875 699.078125 628.058594 700.488281 627.296875 701.851562 C 626.539062 703.214844 625.691406 704.515625 624.75 705.761719 C 623.8125 707.007812 622.789062 708.179688 621.6875 709.28125 C 620.585938 710.382812 619.410156 711.40625 618.164062 712.34375 C 616.921875 713.28125 615.617188 714.132812 614.253906 714.890625 C 612.890625 715.644531 611.480469 716.304688 610.027344 716.867188 C 608.570312 717.429688 607.082031 717.886719 605.566406 718.242188 C 604.046875 718.59375 602.511719 718.84375 600.957031 718.984375 C 599.402344 719.125 597.847656 719.15625 596.292969 719.078125 C 594.734375 719.003906 593.1875 718.820312 591.65625 718.527344 C 590.125 718.238281 588.621094 717.839844 587.144531 717.339844 C 585.664062 716.839844 584.230469 716.238281 582.835938 715.539062 Z M 582.835938 715.539062 " fill-opacity="1" fill-rule="nonzero"/></svg>