<svg xmlns="http://www.w3.org/2000/svg" xmlns:xlink="http://www.w3.org/1999/xlink" width="1080" zoomAndPan="magnify" viewBox="0 0 810 809.999993" height="1080" preserveAspectRatio="xMidYMid meet" version="1.0"><defs><filter x="0%" y="0%" width="100%" height="100%" id="3cbf4fe923"><feColorMatrix values="0 0 0 0 1 0 0 0 0 1 0 0 0 0 1 0 0 0 1 0" color-interpolation-filters="sRGB"/></filter><mask id="bfde4b7a56"><g filter="url(#3cbf4fe923)"><rect x="-81" width="972" fill="#000000" y="-80.999999" height="971.999992" fill-opacity="0.4"/></g></mask><clipPath id="f539134870"><rect x="0" width="677" y="0" height="659"/></clipPath></defs><g mask="url(#bfde4b7a56)"><g transform="matrix(1, 0, 0, 1, 69, 72)"><g clip-path="url(#f539134870)"><path fill="#000000" d="M 513.835938 643.539062 L 357.246094 564.738281 C 356.03125 564.128906 354.789062 563.59375 353.511719 563.132812 C 352.234375 562.675781 350.933594 562.292969 349.613281 561.992188 C 348.289062 561.691406 346.953125 561.472656 345.605469 561.332031 C 344.253906 561.191406 342.902344 561.132812 341.546875 561.160156 C 340.1875 561.183594 338.839844 561.289062 337.496094 561.476562 C 336.152344 561.664062 334.824219 561.933594 333.511719 562.28125 C 332.203125 562.628906 330.917969 563.058594 329.65625 563.5625 C 328.398438 564.066406 327.171875 564.644531 325.984375 565.296875 L 172.300781 649.613281 C 170.933594 650.363281 169.519531 651.015625 168.0625 651.570312 C 166.601562 652.125 165.113281 652.574219 163.59375 652.917969 C 162.070312 653.265625 160.535156 653.503906 158.980469 653.636719 C 157.425781 653.769531 155.871094 653.792969 154.3125 653.707031 C 152.753906 653.625 151.210938 653.429688 149.679688 653.132812 C 148.148438 652.832031 146.648438 652.429688 145.171875 651.917969 C 143.699219 651.410156 142.265625 650.800781 140.878906 650.09375 C 139.488281 649.386719 138.152344 648.582031 136.875 647.691406 C 135.597656 646.796875 134.386719 645.816406 133.246094 644.753906 C 132.105469 643.691406 131.042969 642.554688 130.058594 641.34375 C 129.074219 640.132812 128.179688 638.863281 127.375 637.527344 C 126.566406 636.191406 125.859375 634.804688 125.246094 633.371094 C 124.632812 631.9375 124.121094 630.46875 123.710938 628.964844 C 123.300781 627.457031 123 625.933594 122.804688 624.386719 C 122.609375 622.835938 122.519531 621.285156 122.539062 619.726562 C 122.558594 618.164062 122.6875 616.613281 122.925781 615.074219 L 149.507812 441.769531 C 149.710938 440.429688 149.835938 439.082031 149.878906 437.722656 C 149.917969 436.367188 149.878906 435.015625 149.757812 433.664062 C 149.636719 432.3125 149.433594 430.972656 149.148438 429.644531 C 148.863281 428.320312 148.5 427.015625 148.058594 425.730469 C 147.617188 424.449219 147.097656 423.199219 146.503906 421.976562 C 145.910156 420.757812 145.246094 419.578125 144.507812 418.4375 C 143.773438 417.300781 142.96875 416.207031 142.101562 415.167969 C 141.230469 414.125 140.304688 413.136719 139.316406 412.207031 L 11.597656 292.132812 C 10.460938 291.0625 9.40625 289.921875 8.429688 288.703125 C 7.453125 287.488281 6.566406 286.210938 5.765625 284.871094 C 4.96875 283.53125 4.265625 282.144531 3.660156 280.707031 C 3.054688 279.269531 2.550781 277.796875 2.152344 276.289062 C 1.75 274.78125 1.457031 273.253906 1.269531 271.703125 C 1.082031 270.15625 1.003906 268.601562 1.03125 267.042969 C 1.058594 265.484375 1.195312 263.933594 1.441406 262.394531 C 1.683594 260.851562 2.035156 259.335938 2.488281 257.84375 C 2.945312 256.355469 3.503906 254.902344 4.160156 253.488281 C 4.816406 252.074219 5.570312 250.710938 6.417969 249.402344 C 7.265625 248.09375 8.199219 246.847656 9.21875 245.667969 C 10.242188 244.488281 11.335938 243.386719 12.511719 242.359375 C 13.6875 241.332031 14.925781 240.390625 16.230469 239.539062 C 17.535156 238.683594 18.894531 237.925781 20.304688 237.261719 C 21.714844 236.59375 23.164062 236.03125 24.65625 235.566406 C 26.144531 235.105469 27.660156 234.746094 29.199219 234.496094 L 202.199219 206.207031 C 203.535156 205.988281 204.855469 205.691406 206.160156 205.3125 C 207.460938 204.933594 208.734375 204.480469 209.980469 203.949219 C 211.226562 203.417969 212.4375 202.8125 213.613281 202.132812 C 214.785156 201.453125 215.914062 200.707031 216.996094 199.894531 C 218.082031 199.078125 219.109375 198.199219 220.085938 197.261719 C 221.0625 196.320312 221.980469 195.328125 222.835938 194.277344 C 223.695312 193.226562 224.484375 192.125 225.207031 190.980469 C 225.929688 189.832031 226.582031 188.648438 227.164062 187.421875 L 301.9375 28.828125 C 302.601562 27.417969 303.363281 26.0625 304.214844 24.753906 C 305.070312 23.449219 306.011719 22.210938 307.039062 21.035156 C 308.066406 19.863281 309.167969 18.765625 310.347656 17.746094 C 311.527344 16.722656 312.773438 15.789062 314.082031 14.941406 C 315.390625 14.097656 316.753906 13.34375 318.167969 12.6875 C 319.582031 12.027344 321.035156 11.472656 322.527344 11.019531 C 324.019531 10.5625 325.539062 10.214844 327.078125 9.96875 C 328.617188 9.726562 330.167969 9.589844 331.726562 9.5625 C 333.289062 9.535156 334.84375 9.613281 336.390625 9.804688 C 337.9375 9.992188 339.46875 10.289062 340.972656 10.6875 C 342.480469 11.089844 343.953125 11.59375 345.390625 12.199219 C 346.828125 12.808594 348.214844 13.511719 349.554688 14.308594 C 350.894531 15.109375 352.171875 16 353.386719 16.976562 C 354.601562 17.953125 355.746094 19.011719 356.8125 20.148438 C 357.882812 21.285156 358.867188 22.488281 359.765625 23.761719 C 360.667969 25.039062 361.472656 26.367188 362.1875 27.753906 L 442.546875 183.546875 C 443.171875 184.75 443.863281 185.914062 444.628906 187.035156 C 445.390625 188.160156 446.21875 189.230469 447.113281 190.253906 C 448.003906 191.273438 448.957031 192.238281 449.964844 193.144531 C 450.976562 194.050781 452.035156 194.894531 453.148438 195.671875 C 454.257812 196.449219 455.414062 197.15625 456.613281 197.792969 C 457.808594 198.433594 459.039062 198.996094 460.304688 199.484375 C 461.570312 199.972656 462.863281 200.386719 464.179688 200.71875 C 465.492188 201.050781 466.824219 201.304688 468.171875 201.472656 L 642.070312 223.582031 C 643.617188 223.78125 645.144531 224.082031 646.648438 224.492188 C 648.152344 224.902344 649.621094 225.414062 651.054688 226.027344 C 652.488281 226.640625 653.875 227.351562 655.210938 228.160156 C 656.542969 228.964844 657.816406 229.859375 659.027344 230.84375 C 660.238281 231.828125 661.375 232.890625 662.4375 234.035156 C 663.496094 235.175781 664.476562 236.386719 665.371094 237.664062 C 666.261719 238.945312 667.0625 240.277344 667.769531 241.667969 C 668.480469 243.058594 669.085938 244.488281 669.59375 245.964844 C 670.105469 247.4375 670.507812 248.941406 670.804688 250.472656 C 671.105469 252.003906 671.296875 253.546875 671.378906 255.105469 C 671.464844 256.664062 671.441406 258.21875 671.308594 259.773438 C 671.175781 261.328125 670.933594 262.863281 670.589844 264.386719 C 670.242188 265.90625 669.789062 267.394531 669.234375 268.851562 C 668.683594 270.3125 668.027344 271.722656 667.277344 273.089844 C 666.527344 274.457031 665.683594 275.765625 664.75 277.015625 C 663.820312 278.265625 662.804688 279.445312 661.707031 280.554688 L 538.382812 405.128906 C 537.429688 406.09375 536.535156 407.113281 535.703125 408.183594 C 534.871094 409.257812 534.109375 410.375 533.414062 411.539062 C 532.71875 412.707031 532.09375 413.910156 531.542969 415.148438 C 530.992188 416.390625 530.519531 417.660156 530.125 418.957031 C 529.726562 420.253906 529.410156 421.570312 529.175781 422.90625 C 528.9375 424.242188 528.78125 425.589844 528.707031 426.945312 C 528.636719 428.296875 528.644531 429.652344 528.734375 431.007812 C 528.824219 432.359375 528.996094 433.703125 529.25 435.039062 L 561.949219 607.253906 C 562.238281 608.789062 562.421875 610.332031 562.5 611.890625 C 562.574219 613.449219 562.539062 615.003906 562.398438 616.554688 C 562.257812 618.109375 562.007812 619.644531 561.65625 621.164062 C 561.300781 622.683594 560.839844 624.167969 560.277344 625.625 C 559.71875 627.078125 559.058594 628.488281 558.296875 629.851562 C 557.539062 631.214844 556.691406 632.515625 555.75 633.761719 C 554.8125 635.007812 553.789062 636.179688 552.6875 637.28125 C 551.585938 638.382812 550.410156 639.40625 549.164062 640.34375 C 547.921875 641.285156 546.617188 642.132812 545.253906 642.890625 C 543.890625 643.644531 542.480469 644.304688 541.027344 644.867188 C 539.570312 645.429688 538.082031 645.886719 536.566406 646.242188 C 535.046875 646.59375 533.511719 646.84375 531.957031 646.984375 C 530.402344 647.125 528.847656 647.15625 527.292969 647.078125 C 525.734375 647.003906 524.1875 646.820312 522.65625 646.527344 C 521.125 646.238281 519.621094 645.84375 518.144531 645.339844 C 516.664062 644.839844 515.230469 644.242188 513.835938 643.539062 Z M 513.835938 643.539062 " fill-opacity="1" fill-rule="nonzero"/></g></g></g></svg>